:SAMPLES-PER-SECOND 24
:FULLY-SPECIFIED
:DEGREES
509
root  -2.26921 41.25 35.0333 172.95 50.3204 176.864
RightUpLeg  4.88676 -11.6136 -16.3178
RightLeg  20.7504 4.95291 1.86419
RightFoot  6.37941 -2.12923 13.8982
RightToes  -1.74623e-010 0 -2.59999e-017
Spine  1.56664 2.17347 2.4881
Spine1  13.8977 2.70032 -1.72547
HEad  -10.9867 42.315 -19.3435
LeftShoulder1  1.49296 -2.51712 -18.2089
LeftArm  9.75652 23.904 -40.7732
LeftForeArm  19.6015 -58.1031 -16.5154
LeftHand  -0.112307 2.86621 4.61116
RightShoulder  2.77794 5.01037 26.6257
RightArm  2.155 -27.7869 34.6114
RightForeArm  132.756 68.3872 150.782
RightHand  -0.129747 -8.42083 3.01446
LeftUpLeg  -4.28187 9.66731 9.10597
LeftLeg  21.1961 -3.24602 -1.0445
LeftFoot  11.9282 2.01178 -10.1105
LeftToes  -6.27559e-011 -2.10356e-011 8.24929e-012
510
root  -2.37821 39.7833 35.2614 172.09 50.2656 176.427
RightUpLeg  3.60902 -11.4558 -16.8925
RightLeg  25.8867 6.10967 3.00245
RightFoot  -3.72614 -0.971042 14.0964
RightToes  -1.74623e-010 0 -2.59999e-017
Spine  4.29106 2.45962 2.38605
Spine1  11.8374 3.00688 -2.22038
HEad  -11.5882 41.1505 -19.2024
LeftShoulder1  1.4827 -2.70056 -17.2364
LeftArm  11.4347 20.1826 -39.9504
LeftForeArm  19.7619 -57.1287 -15.8208
LeftHand  -0.113964 3.60941 6.63535
RightShoulder  2.59014 4.86165 24.8835
RightArm  1.06499 -23.6739 32.2735
RightForeArm  125.192 70.3813 146.685
RightHand  -0.108105 -7.95157 2.52896
LeftUpLeg  -6.16412 9.29157 8.95646
LeftLeg  27.2566 -2.96999 -1.3009
LeftFoot  2.60206 1.21956 -10.067
LeftToes  -6.27559e-011 -2.10356e-011 8.24929e-012
511
root  -2.55547 38.0463 35.4569 172.147 50.4186 176.842
RightUpLeg  1.66906 -13.1679 -17.6393
RightLeg  32.9997 7.18699 4.77601
RightFoot  -16.7347 0.501378 13.1445
RightToes  -1.74623e-010 0 -2.59999e-017
Spine  5.52583 2.36264 3.28437
Spine1  12.4658 3.07663 -3.21713
HEad  -14.783 40.2739 -20.9285
LeftShoulder1  1.52058 -2.71188 -17.8485
LeftArm  11.2817 14.0314 -37.7805
LeftForeArm  21.5046 -55.8969 -14.8521
LeftHand  -0.0409254 5.03765 4.22845
RightShoulder  2.48595 4.67954 24.2731
RightArm  -0.987576 -14.9588 29.3378
RightForeArm  113.246 73.4672 138.138
RightHand  0.028186 -9.82206 -2.14117
LeftUpLeg  -8.82935 10.1108 9.5539
LeftLeg  34.7409 -2.13121 -1.21092
LeftFoot  -10.5692 0.13129 -9.90234
LeftToes  -6.27559e-011 -2.10356e-011 8.24929e-012
512
root  -2.75979 37.0094 35.4989 172.669 50.5015 177.491
RightUpLeg  -0.218933 -14.418 -18.0755
RightLeg  37.7407 8.22725 6.52808
RightFoot  -22.4969 1.04692 12.2469
RightToes  -1.74623e-010 0 -2.59999e-017
Spine  5.39429 1.6442 3.96127
Spine1  14.6529 2.3268 -3.20054
HEad  -19.0424 40.5836 -25.0086
LeftShoulder1  1.64873 -2.59728 -20.601
LeftArm  7.37072 9.35779 -36.2743
LeftForeArm  30.2254 -53.7744 -12.8573
LeftHand  0.00509162 6.1962 4.77241
RightShoulder  2.57058 4.69143 25.3115
RightArm  -2.71068 -3.93462 29.012
RightForeArm  95.9415 77.2358 119.569
RightHand  0.981918 -13.9637 -13.7341
LeftUpLeg  -11.6054 10.3824 9.96086
LeftLeg  40.3896 -2.09314 -1.50774
LeftFoot  -16.3759 -0.341705 -9.97978
LeftToes  -6.27559e-011 -2.10356e-011 8.24929e-012
513
root  -2.78645 37.3595 35.2518 172.156 50.9357 176.849
RightUpLeg  0.115468 -13.7548 -18.7061
RightLeg  36.3891 8.40475 6.36264
RightFoot  -19.3983 0.799147 13.2427
RightToes  -1.74623e-010 0 -2.59999e-017
Spine  5.17052 1.65064 3.34514
Spine1  14.9227 2.03406 -2.13849
HEad  -19.2969 41.5349 -26.9595
LeftShoulder1  1.75003 -2.63826 -22.1664
LeftArm  4.08029 10.2543 -39.5231
LeftForeArm  35.7939 -51.0594 -11.0774
LeftHand  0.383979 8.7257 14.4482
RightShoulder  2.69974 4.83382 26.3708
RightArm  -4.37659 -1.24571 34.6346
RightForeArm  88.1776 78.8276 104.613
RightHand  2.12998 -15.3745 -24.5116
LeftUpLeg  -11.6536 11.3166 9.46443
LeftLeg  40.6518 -2.55675 -1.95158
LeftFoot  -12.9203 -0.0666543 -10.3717
LeftToes  -6.27559e-011 -2.10356e-011 8.24929e-012
514
root  -2.6249 38.8739 34.6617 170.821 52.0013 175.16
RightUpLeg  2.96608 -12.1608 -19.7709
RightLeg  29.0967 8.28644 4.73692
RightFoot  -10.3934 -0.213201 15.9362
RightToes  -1.74623e-010 0 -2.59999e-017
Spine  4.55129 2.55614 2.90215
Spine1  13.3416 3.01465 -1.97867
HEad  -14.1029 42.4611 -23.8519
LeftShoulder1  1.72741 -2.68146 -21.5648
LeftArm  4.69114 15.7005 -44.2193
LeftForeArm  31.5182 -50.2724 -11.0593
LeftHand  0.417551 7.88854 19.5836
RightShoulder  2.77643 4.88432 27.119
RightArm  -6.06057 -7.96375 42.1918
RightForeArm  102.168 78.2236 114.97
RightHand  1.87347 -13.4257 -26.5091
LeftUpLeg  -8.41622 14.333 8.54796
LeftLeg  35.2367 -4.18208 -2.7794
LeftFoot  -3.80225 0.680503 -10.1763
LeftToes  -6.27559e-011 -2.10356e-011 8.24929e-012
515
root  -2.49404 40.6402 33.9022 170.654 53.0696 174.477
RightUpLeg  5.34098 -11.5276 -20.2054
RightLeg  20.7479 7.97647 3.09903
RightFoot  3.78706 -2.41285 18.129
RightToes  -1.74623e-010 0 -2.59999e-017
Spine  2.88264 3.04663 3.76674
Spine1  12.2129 3.90415 -2.66712
HEad  -8.28562 43.1368 -19.2352
LeftShoulder1  1.68744 -2.56797 -21.4207
LeftArm  6.2163 21.8208 -44.6429
LeftForeArm  27.5621 -52.8241 -12.5972
LeftHand  -0.13813 3.76459 9.60419
RightShoulder  2.937 5.04657 28.4058
RightArm  -3.93229 -14.8072 45.5296
RightForeArm  112.238 76.3008 128.315
RightHand  1.22647 -11.8546 -22.1152
LeftUpLeg  -5.34726 16.9176 8.1558
LeftLeg  28.1867 -7.03688 -3.70937
LeftFoot  9.58937 2.00425 -11.104
LeftToes  -6.27559e-011 -2.10356e-011 8.24929e-012
516
root  -2.49865 41.8659 33.23 171.859 53.7047 175.183
RightUpLeg  5.47144 -11.8211 -19.529
RightLeg  15.9651 3.8627 1.17636
RightFoot  16.512 -4.4392 18.2355
RightToes  -1.74623e-010 0 -2.59999e-017
Spine  0.969573 3.08531 4.8011
Spine1  12.1769 4.13325 -2.82217
HEad  -6.22614 43.3063 -16.9346
LeftShoulder1  1.6498 -2.48211 -21.174
LeftArm  6.8998 26.226 -43.7311
LeftForeArm  28.2017 -56.3959 -14.5355
LeftHand  -0.0421447 0.956151 0.980741
RightShoulder  3.04143 5.24523 28.8324
RightArm  1.93641 -18.6024 45.5326
RightForeArm  119.282 74.6165 135.84
RightHand  0.462776 -9.26542 -14.5865
LeftUpLeg  -4.3397 16.5937 8.26394
LeftLeg  23.4114 -7.55932 -3.24389
LeftFoot  18.9593 3.57163 -13.5767
LeftToes  -6.27559e-011 -2.10356e-011 8.24929e-012
517
root  -2.58733 42.4001 32.7428 171.991 54.0653 175.152
RightUpLeg  5.3206 -12.3389 -19.2045
RightLeg  14.6916 -1.56451 -0.31929
RightFoot  19.0032 -4.18475 15.7994
RightToes  -1.74623e-010 0 -2.59999e-017
Spine  0.357905 3.38185 4.52142
Spine1  12.5202 4.4762 -2.95695
HEad  -7.80643 42.5659 -16.9151
LeftShoulder1  1.58325 -2.65584 -19.1901
LeftArm  9.26962 27.7426 -44.5366
LeftForeArm  28.4523 -58.8005 -16.1107
LeftHand  -0.118172 0.796384 2.98786
RightShoulder  2.85406 5.12329 27.0923
RightArm  6.9545 -20.6355 45.9529
RightForeArm  131.603 72.3812 143.662
RightHand  -0.0387087 -5.11301 -4.88803
LeftUpLeg  -3.61096 15.134 8.04913
LeftLeg  20.6868 -4.72957 -1.64328
LeftFoot  18.1955 3.32551 -12.9638
LeftToes  -6.27559e-011 -2.10356e-011 8.24929e-012
518
root  -2.78306 42.3357 32.3986 170.872 54.2254 174.252
RightUpLeg  5.15599 -12.9486 -19.4055
RightLeg  16.0576 -0.408007 -0.175474
RightFoot  14.796 -3.07636 13.6362
RightToes  -1.74623e-010 0 -2.59999e-017
Spine  1.4594 3.61272 3.65673
Spine1  12.5617 4.82811 -3.68449
HEad  -10.6722 41.588 -18.2344
LeftShoulder1  1.54386 -2.86793 -17.5944
LeftArm  13.229 25.774 -43.8248
LeftForeArm  28.0533 -60.1986 -17.2128
LeftHand  -0.161711 2.59779 6.31197
RightShoulder  2.58581 4.79544 25.0906
RightArm  9.93678 -19.8157 45.9686
RightForeArm  139.459 69.9423 149.32
RightHand  0.0017293 -3.72221 2.33189
LeftUpLeg  -3.00894 13.6153 7.49068
LeftLeg  18.1762 -1.22756 -0.220015
LeftFoot  16.155 2.26481 -9.67143
LeftToes  -6.27559e-011 -2.10356e-011 8.24929e-012
519
root  -3.06442 41.6124 32.1295 170.299 54.2921 173.745
RightUpLeg  3.33288 -11.7065 -18.9397
RightLeg  20.5091 2.54166 0.857563
RightFoot  9.91892 -2.56254 13.9512
RightToes  -1.74623e-010 0 -2.59999e-017
Spine  3.09409 3.5211 2.94955
Spine1  11.9318 4.79024 -4.53935
HEad  -12.6999 41.0033 -19.7264
LeftShoulder1  1.53479 -2.92676 -17.2038
LeftArm  15.1359 22.4087 -41.6869
LeftForeArm  29.5324 -60.4614 -17.2592
LeftHand  -0.132335 3.05572 5.97248
RightShoulder  2.47203 4.67427 24.1138
RightArm  11.3543 -16.5116 44.8602
RightForeArm  138.684 68.9622 150.707
RightHand  -0.0162645 -5.00093 3.99749
LeftUpLeg  -3.86528 13.1262 7.50749
LeftLeg  17.7561 -0.673281 -0.157351
LeftFoot  16.0948 2.24923 -9.57484
LeftToes  -6.27559e-011 -2.10356e-011 8.24929e-012
520
root  -3.33016 40.1804 31.8603 169.653 54.0177 173.025
RightUpLeg  1.48243 -10.8624 -19.1307
RightLeg  26.4508 1.60969 0.650082
RightFoot  0.786041 -1.62368 15.2526
RightToes  -1.74623e-010 0 -2.59999e-017
Spine  4.26607 3.35973 1.41554
Spine1  11.4113 4.38827 -4.61076
HEad  -13.8477 40.6664 -20.5673
LeftShoulder1  1.49977 -2.97096 -16.4398
LeftArm  15.8136 18.5718 -40.3764
LeftForeArm  27.3161 -59.0542 -16.4162
LeftHand  -0.175927 2.14602 6.01368
RightShoulder  2.41514 4.70164 23.2731
RightArm  10.557 -12.02 43.7751
RightForeArm  133.662 69.6065 149.075
RightHand  -0.0269772 -5.22535 3.20363
LeftUpLeg  -5.63891 15.7077 7.43247
LeftLeg  22.3155 -3.77317 -1.35994
LeftFoot  7.62193 1.87966 -11.5036
LeftToes  -6.27559e-011 -2.10356e-011 8.24929e-012
521
root  -3.62474 38.4285 31.6271 168.007 52.5772 171.829
RightUpLeg  1.46558 -11.7386 -21.0346
RightLeg  31.6467 -0.364112 -0.471539
RightFoot  -12.0066 0.0111188 16.2998
RightToes  -1.74623e-010 0 -2.59999e-017
Spine  5.32009 2.92311 -1.13826
Spine1  12.3708 3.39759 -3.41782
HEad  -15.9479 40.2729 -21.9683
LeftShoulder1  1.50757 -2.90713 -16.8261
LeftArm  17.0843 10.7379 -38.1443
LeftForeArm  21.361 -55.3136 -14.5428
LeftHand  -0.109328 3.14239 4.69892
RightShoulder  2.41577 4.6562 23.4564
RightArm  7.38497 -4.55367 41.887
RightForeArm  125.157 72.1346 143.139
RightHand  -0.0364128 -5.78491 1.14275
LeftUpLeg  -8.01921 16.7747 6.41037
LeftLeg  30.5899 -5.0964 -2.86817
LeftFoot  -6.65297 0.494121 -10.8023
LeftToes  -6.27559e-011 -2.10356e-011 8.24929e-012
522
root  -3.97726 37.1672 31.4754 167.17 50.6291 171.864
RightUpLeg  1.41463 -12.9211 -22.7855
RightLeg  36.2931 -0.366531 -0.531386
RightFoot  -19.6451 1.09438 16.8274
RightToes  -1.74623e-010 0 -2.59999e-017
Spine  6.24586 2.23372 -2.13172
Spine1  14.6451 2.44313 -2.62323
HEad  -19.1231 39.3604 -24.3222
LeftShoulder1  1.63501 -2.80004 -19.4347
LeftArm  14.5838 1.06524 -36.2373
LeftForeArm  26.7406 -49.4636 -11.1223
LeftHand  -0.0376527 5.16728 2.94636
RightShoulder  2.64102 4.81081 25.7154
RightArm  3.45887 2.8815 40.4702
RightForeArm  112.288 76.1872 128.607
RightHand  0.178244 -8.72926 -6.98807
LeftUpLeg  -11.3805 15.4705 5.43667
LeftLeg  38.612 -4.44339 -3.39589
LeftFoot  -13.7562 -0.113611 -8.94035
LeftToes  -6.27559e-011 -2.10356e-011 8.24929e-012
523
root  -4.15826 37.0757 31.2686 167.659 50.3825 173.044
RightUpLeg  0.996046 -13.5583 -23.1223
RightLeg  38.2379 0.903679 0.512038
RightFoot  -18.5747 0.974182 17.3141
RightToes  -1.74623e-010 0 -2.59999e-017
Spine  6.29789 2.07657 -0.265976
Spine1  16.4089 2.78456 -3.95955
HEad  -20.2184 38.6178 -25.5745
LeftShoulder1  1.74316 -2.81997 -21.1801
LeftArm  6.41968 -0.775513 -38.8404
LeftForeArm  41.6916 -47.3683 -9.1303
LeftHand  0.249923 8.65799 9.3705
RightShoulder  2.89013 5.11243 27.5743
RightArm  1.08812 2.26917 43.0787
RightForeArm  103.035 78.1467 116.071
RightHand  1.35441 -12.5535 -21.7749
LeftUpLeg  -12.0752 14.6831 5.73672
LeftLeg  40.4282 -4.05511 -3.28815
LeftFoot  -13.4133 -0.0803312 -8.83875
LeftToes  -6.27559e-011 -2.10356e-011 8.24929e-012
